<?xml version="1.0" standalone="no"?><!DOCTYPE svg PUBLIC "-//W3C//DTD SVG 1.1//EN" "http://www.w3.org/Graphics/SVG/1.1/DTD/svg11.dtd"><svg t="1726674126507" class="icon" viewBox="0 0 1024 1024" version="1.1" xmlns="http://www.w3.org/2000/svg" p-id="5610" xmlns:xlink="http://www.w3.org/1999/xlink" width="200" height="200"><path d="M930.712 720.808l-50.9 111.052a24 24 0 0 1-31.816 11.816l-276.356-126.664 43.332-94.544 299.012 64.88c14.98 3.26 23.112 19.528 16.728 33.46z" fill="#F9A7A7" p-id="5611"></path><path d="M857.948 853.86a31.84 31.84 0 0 1-13.284-2.908l-276.36-126.664a8 8 0 0 1-3.94-10.608l43.332-94.544a8 8 0 0 1 8.972-4.484l299.012 64.88a31.844 31.844 0 0 1 21.832 16.96 31.848 31.848 0 0 1 0.468 27.644l-50.896 111.052a32.04 32.04 0 0 1-29.136 18.672z m-275.704-140.78l269.084 123.328a15.84 15.84 0 0 0 12.236 0.452 15.9 15.9 0 0 0 8.972-8.332l50.9-111.056a15.92 15.92 0 0 0-0.236-13.82 15.92 15.92 0 0 0-10.916-8.48l-292.724-63.516-37.316 81.424z" fill="#3762CC" p-id="5612"></path><path d="M507.092 932.092V836h-56v92h-32a24 24 0 0 0-24 24 16 16 0 0 0 16 16h84a20 20 0 0 0 20-20c0-6.52-3.168-12.26-8-15.908z" fill="#F9A7A7" p-id="5613"></path><path d="M495.092 976h-84c-13.236 0-24-10.764-24-24 0-17.644 14.356-32 32-32h24v-84a8 8 0 0 1 8-8h56a8 8 0 0 1 8 8v92.492a27.636 27.636 0 0 1 8 19.508c0 15.44-12.56 28-28 28z m-76-40c-8.824 0-16 7.176-16 16 0 4.412 3.588 8 8 8h84c6.616 0 12-5.384 12-12 0-3.74-1.756-7.208-4.824-9.524a8.004 8.004 0 0 1-3.176-6.384V844h-40v84a8 8 0 0 1-8 8h-32z" fill="#3762CC" p-id="5614"></path><path d="M459.092 932.092V836h-56v92h-32a24 24 0 0 0-24 24 16 16 0 0 0 16 16h84a20 20 0 0 0 20-20c0-6.52-3.168-12.26-8-15.908z" fill="#F9CFCF" p-id="5615"></path><path d="M447.092 976h-84c-13.236 0-24-10.764-24-24 0-17.644 14.356-32 32-32h24v-84a8 8 0 0 1 8-8h56a8 8 0 0 1 8 8v92.492a27.636 27.636 0 0 1 8 19.508c0 15.44-12.56 28-28 28z m-76-40c-8.824 0-16 7.176-16 16 0 4.412 3.588 8 8 8h84c6.616 0 12-5.384 12-12 0-3.74-1.756-7.208-4.824-9.524a8.004 8.004 0 0 1-3.176-6.384V844h-40v84a8 8 0 0 1-8 8h-32z" fill="#3762CC" p-id="5616"></path><path d="M565.084 854.336c114.872-13.532 204-111.164 204-229.672v-56.956a15.712 15.712 0 0 0-15.712-15.712h-12.356c-34.696 0-68.824-10.812-96.156-32.184-1.6-1.252-3.168-2.524-4.704-3.816-53.172-44.668-70.288-113.596-75.068-165.38V252.768C565.088 166.188 494.9 96 408.32 96H290.416c-69.22 0-125.332 56.112-125.332 125.332V656c0 110.456 89.544 200 200 200h172.668l27.332-1.664z" fill="#6BDDDD" p-id="5617"></path><path d="M533.084 248h-368v-23.428C165.084 131.472 240.556 56 333.652 56h287.428a8 8 0 0 1 8 8v88c0.004 53.02-42.98 96-95.996 96z" fill="#A4C9FF" p-id="5618"></path><path d="M287.092 302a32 32 0 0 1-32-32v-40a32 32 0 0 1 64 0v40a32 32 0 0 1-32 32z" fill="#4671C6" p-id="5619"></path><path d="M537.752 864H365.228c-114.772 0-208.148-93.376-208.148-208.148V221.332c0-7.188 0.608-14.524 1.804-21.8C171.056 113.224 246.2 48 333.652 48h287.284a16.16 16.16 0 0 1 16.144 16.148V152c0 39.96-23.348 76.852-59.488 93.992-2.784 1.32-4.512 3.904-4.512 6.744V328.24c0 26.992 3.196 52.656 9.5 76.288 12.02 45.048 33.12 80.492 62.712 105.352 18.436 15.488 40.424 26.964 65.372 34.124h42.556a23.88 23.88 0 0 1 23.856 23.856v56.808c0 121.284-90.736 223.44-211.06 237.616-0.18 0.02-0.36 0.036-0.54 0.044l-27.244 1.656a6.204 6.204 0 0 1-0.48 0.016z m27.336-9.664h0.04-0.04zM333.652 64c-79.528 0-147.86 59.304-158.952 137.948a119.504 119.504 0 0 0-1.62 19.384v434.52C173.084 761.804 259.28 848 365.228 848h172.28l26.872-1.636c112.156-13.332 196.7-108.6 196.7-221.7v-56.808a7.864 7.864 0 0 0-7.856-7.856h-43.652c-0.744 0-1.524-0.108-2.24-0.316-27.544-7.748-51.892-20.388-72.332-37.56-32.156-27.012-54.996-65.192-67.88-113.476-6.664-24.976-10.044-52.028-10.044-80.412V252.768c-0.004-9.116 5.232-17.24 13.66-21.236 30.584-14.504 50.34-45.724 50.34-79.532V64.148L333.652 64z" fill="#3762CC" p-id="5620"></path><path d="M179.092 352h-64a24 24 0 0 1-24-24c0-22.092 17.908-40 40-40h48a32 32 0 0 1 0 64z" fill="#EAA97D" p-id="5621"></path><path d="M179.092 360h-64c-17.644 0-32-14.356-32-32 0-26.468 21.532-48 48-48h48c22.056 0 40 17.944 40 40s-17.944 40-40 40z m-48-64c-17.644 0-32 14.356-32 32 0 8.824 7.176 16 16 16h64c13.236 0 24-10.764 24-24s-10.764-24-24-24h-48z" fill="#3762CC" p-id="5622"></path><path d="M743.016 721.988c-133.924 77.32-305.168 31.436-382.488-102.488l-4-6.928c-44.184-76.528-17.964-174.38 58.564-218.564 76.528-44.184 174.38-17.964 218.564 58.564l124 214.776c11.048 19.132 4.492 43.596-14.64 54.64z" fill="#F9A7A7" p-id="5623"></path><path d="M603.276 711.548c-82.764 0-159.852-44.468-201.176-116.048l-4.008-6.936c-30.872-53.472-12.48-122.108 41-152.988a111.9 111.9 0 0 1 55.852-15.032c39.968 0 77.192 21.468 97.144 56.028l115.708 200.42c2.344 4.064 0.68 9.208-3.54 11.256a231.532 231.532 0 0 1-100.98 23.3z" fill="#F9CFCF" p-id="5624"></path><path d="M603.484 767.628a289.612 289.612 0 0 1-75.008-9.936c-74.308-19.912-136.412-67.568-174.876-134.188l-4-6.924c-46.316-80.228-18.732-183.176 61.492-229.496 80.22-46.32 183.176-18.732 229.492 61.492l124 214.776c13.236 22.916 5.352 52.332-17.568 65.568-44.376 25.616-93.628 38.708-143.532 38.708z m-108.648-387.024a151.08 151.08 0 0 0-75.744 20.332c-72.584 41.908-97.54 135.052-55.636 207.636l4 6.924c74.992 129.888 241.668 174.544 371.56 99.564 15.28-8.824 20.536-28.432 11.712-43.712l-124-214.776c-28.12-48.704-79.324-75.968-131.892-75.968z m248.18 341.388h0.04-0.04z" fill="#3762CC" p-id="5625"></path></svg>